<svg width="757" height="224" viewBox="0 0 757 224" fill="none" xmlns="http://www.w3.org/2000/svg">
<path d="M68.6055 187.583L51.3476 170.399L34.0897 187.583L51.3476 223.577L68.6055 187.583Z" fill="#ED5338"/>
<path d="M51.3494 17.5142C47.6714 19.3527 0 44.5979 0 84.9053C0 119.343 28.0795 171.601 28.0795 171.601L51.3494 148.266L74.6192 171.601C74.6192 171.601 102.699 119.343 102.699 84.9053C102.699 44.5979 55.0273 19.4235 51.3494 17.5142ZM66.6975 132.567L51.3494 117.151L36.0011 132.567C35.2231 130.446 24.8967 102.584 24.8967 84.3396C24.8967 59.8016 49.5104 46.0829 51.3494 45.0929C53.1883 46.0829 77.8021 59.8723 77.8021 84.3396C77.8021 102.513 67.4756 130.446 66.6975 132.567Z" fill="#C59368"/>
<path d="M120.264 17.5508L102.71 0L85.1555 17.5508L102.71 35.1016L120.264 17.5508Z" fill="#C59368"/>
<path d="M51.6323 95.3711C58.273 95.3711 63.6563 89.9889 63.6563 83.3496C63.6563 76.7103 58.273 71.3281 51.6323 71.3281C44.9917 71.3281 39.6084 76.7103 39.6084 83.3496C39.6084 89.9889 44.9917 95.3711 51.6323 95.3711Z" fill="#C59368"/>
<path d="M429.274 28.0256C426.233 28.9449 420.999 30.2178 415.836 31.2785C411.097 32.2685 404.802 33.1878 398.507 35.4507C388.464 38.9864 383.3 49.3107 382.381 62.2515C382.31 63.1001 381.957 63.9487 381.744 64.7973H382.31C386.2 56.3822 396.81 50.725 406.995 50.725C424.748 50.725 436.418 62.5344 436.418 80.7788C436.418 96.5482 424.182 112.247 404.095 112.247C382.24 112.247 370.781 94.2146 370.781 71.303C370.781 45.8457 377.854 32.3392 393.91 25.6213C398.649 23.6413 402.68 23.0049 406.358 22.227C415.129 20.4591 420.292 19.3277 425.879 17.772L429.274 28.0256ZM404.095 102.135C415.482 102.135 424.253 93.366 424.253 81.3445C424.253 68.4037 416.472 60.8372 404.307 60.8372C395.961 60.8372 386.059 67.4844 382.876 75.6873C382.947 89.7596 390.656 102.135 404.095 102.135Z" fill="#562212"/>
<path d="M455.515 110.267H444.765V50.1597H456.788C456.788 50.1597 456.788 88.0627 456.788 89.477C456.788 90.8913 456.506 92.3056 456.223 93.2249C456.576 93.2249 456.788 93.2249 456.788 93.2249L491.163 50.1597H501.914V110.267H489.89C489.89 110.267 489.89 72.5055 489.89 70.9498C489.89 69.5355 490.173 67.9798 490.456 67.0605C490.173 67.0605 489.89 67.0605 489.89 67.0605L455.515 110.267Z" fill="#562212"/>
<path d="M509.764 104.115L514.503 95.4877C519.313 99.377 526.739 102.064 533.034 102.064C542.017 102.064 547.958 98.0334 547.958 92.1641C547.958 87.2141 544.28 84.6683 536.924 84.6683H526.739V75.334H536.288C542.3 75.334 546.048 71.9397 546.048 67.1311C546.048 61.7568 541.805 58.5039 533.883 58.5039C528.225 58.5039 521.364 60.6253 515.918 64.8682L511.179 56.3117C518.393 50.796 527.164 48.4624 535.439 48.4624C549.868 48.4624 558.072 54.8974 558.072 64.9389C558.072 71.869 554.607 76.6069 547.463 79.1526V79.4354C555.526 80.3547 559.982 86.2948 559.982 93.6491C559.982 104.751 548.948 112.318 534.449 112.318C524.052 112.318 514.998 108.853 509.764 104.115Z" fill="#562212"/>
<path d="M612.677 110.267V84.1733H580.425V110.267H568.401V50.1596H580.425V74.839H612.677V50.0889H624.701V110.196H612.677V110.267Z" fill="#562212"/>
<path d="M691.395 84.4562C691.536 83.254 691.607 81.9812 691.607 80.7083C691.607 62.3932 682.766 48.4624 662.254 48.4624C644.572 48.4624 633.043 62.3932 633.043 80.7083C633.043 98.8113 644.643 112.318 665.72 112.318C675.905 112.318 684.534 109.206 690.758 104.115L686.019 95.4877C681.422 98.9527 674.349 102.206 666.074 102.206C652.918 102.206 646.552 95.0634 645.421 84.5269H645.492H691.395V84.4562ZM662.891 58.5746C673.712 58.5746 679.017 65.8582 679.937 75.1218H645.562C647.118 65.7875 653.908 58.5746 662.891 58.5746Z" fill="#562212"/>
<path d="M732.207 58.7164C738.29 58.7164 744.443 60.3429 751.445 64.8686C751.445 64.8686 754.487 59.3529 756.326 56.0293C749.111 50.9378 740.765 48.3921 731.854 48.3921C712.474 48.3921 699.46 61.9693 699.46 80.2844C699.46 98.1045 712.403 112.247 732.066 112.247C741.685 112.247 750.102 109.49 756.326 104.398L751.587 95.7709C746.99 99.236 740.27 101.852 732.915 101.852C720.678 101.852 711.625 92.6595 711.625 79.5773C711.625 68.4751 718.839 58.7164 732.207 58.7164Z" fill="#562212"/>
<path d="M333.154 23.9951C333.154 28.3087 331.174 30.7837 327.849 30.7837C324.525 30.7837 322.545 28.1673 322.545 23.9951H305.075C305.57 36.7945 312.996 45.4217 328.132 45.4217C342.137 45.4217 350.129 36.5823 350.624 23.9951H333.154Z" fill="#562212"/>
<path d="M296.228 110.267V50.1597H316.386C316.386 50.1597 316.386 76.112 316.386 78.1627C316.386 80.2134 315.962 82.547 315.962 82.547H316.811L338.807 50.1597H358.116V110.267H337.959C337.959 110.267 337.959 84.7392 337.959 81.9813C337.959 79.9306 338.383 78.0213 338.383 78.0213H337.534L315.537 110.196H296.228V110.267Z" fill="#562212"/>
<path d="M254.57 48.6035C273.738 48.6035 288.025 62.11 288.025 80.2837C288.025 98.2452 273.738 111.822 254.57 111.822C235.615 111.822 221.327 98.2452 221.327 80.2837C221.327 62.11 235.615 48.6035 254.57 48.6035ZM254.57 93.0831C261.855 93.0831 266.736 87.3552 266.736 80.2837C266.736 73.0001 261.855 67.2722 254.57 67.2722C247.426 67.2722 242.405 72.9294 242.405 80.2837C242.405 87.4259 247.497 93.0831 254.57 93.0831Z" fill="#562212"/>
<path d="M197.14 50.0889C197.14 50.0889 180.307 72.0104 179.6 72.859C178.751 73.9197 178.68 74.4147 178.68 74.4147H177.831C177.831 74.4147 177.69 73.849 176.841 72.859C175.639 71.374 158.169 50.0889 158.169 50.0889H142.325V110.196H161.776C161.776 110.196 161.776 87.6384 161.776 84.9512C161.776 82.2641 161.351 80.5669 161.351 80.5669H162.2L177.831 98.5285H178.68L193.18 80.5669H194.028C194.028 80.5669 193.604 82.1934 193.604 84.9512C193.604 87.7091 193.604 110.196 193.604 110.196H213.054V50.0889H197.14Z" fill="#562212"/>
<path d="M155.105 136.976H146.166V160.093H142.325V133.505H158.946V160.093H155.105V136.976Z" fill="#562212"/>
<path d="M165.152 133.579H167.885L168.476 136.459H168.697C170.027 134.096 172.095 132.914 174.902 132.914C177.71 132.914 179.778 133.948 181.181 136.016C182.585 138.084 183.25 141.555 183.25 146.282C183.25 148.498 183.028 150.492 182.585 152.338C182.142 154.111 181.477 155.662 180.591 156.917C179.704 158.173 178.67 159.133 177.488 159.798C176.232 160.462 174.902 160.758 173.425 160.758C172.391 160.758 171.578 160.684 170.987 160.536C170.396 160.388 169.732 160.167 168.993 159.798V170.728H165.152V133.579ZM168.993 155.957C169.51 156.4 170.027 156.696 170.692 156.991C171.283 157.213 172.169 157.36 173.13 157.36C174.976 157.36 176.528 156.4 177.562 154.48C178.67 152.56 179.187 149.827 179.187 146.282C179.187 144.805 179.113 143.475 178.891 142.22C178.67 141.038 178.374 140.004 177.931 139.118C177.488 138.232 176.971 137.567 176.306 137.124C175.641 136.681 174.829 136.385 173.868 136.385C171.283 136.385 169.584 137.936 168.845 141.112V155.957H168.993Z" fill="#562212"/>
<path d="M204.229 158.321C203.343 159.133 202.309 159.724 200.979 160.093C199.649 160.536 198.32 160.758 196.842 160.758C195.143 160.758 193.74 160.463 192.484 159.798C191.228 159.133 190.268 158.173 189.455 156.991C188.643 155.736 188.052 154.333 187.682 152.634C187.313 150.935 187.091 149.015 187.091 146.873C187.091 142.368 187.904 138.897 189.603 136.533C191.302 134.17 193.592 132.988 196.695 132.988C197.655 132.988 198.689 133.136 199.649 133.358C200.61 133.579 201.496 134.096 202.309 134.835C203.121 135.573 203.712 136.607 204.229 137.937C204.673 139.266 204.968 141.039 204.968 143.18C204.968 143.771 204.968 144.436 204.894 145.101C204.82 145.765 204.746 146.504 204.673 147.242H191.154C191.154 148.793 191.302 150.123 191.524 151.378C191.745 152.634 192.188 153.668 192.706 154.554C193.223 155.44 193.887 156.105 194.774 156.548C195.586 156.991 196.621 157.287 197.876 157.287C198.837 157.287 199.797 157.139 200.757 156.77C201.718 156.401 202.383 155.957 202.9 155.514L204.229 158.321ZM201.201 144.067C201.275 141.408 200.905 139.488 200.093 138.232C199.28 136.976 198.172 136.386 196.768 136.386C195.143 136.386 193.814 136.976 192.853 138.232C191.893 139.488 191.302 141.408 191.154 144.067H201.201Z" fill="#562212"/>
<path d="M228.753 166.888H226.093L225.429 160.167H209.694L209.029 166.888H206.444V156.696H208.955C209.177 156.327 209.473 155.588 209.842 154.554C210.211 153.52 210.581 152.043 210.95 150.197C211.319 148.35 211.615 146.061 211.91 143.328C212.206 140.595 212.354 137.346 212.354 133.579H225.724V156.696H228.827V166.888H228.753ZM221.809 156.696V137.05H215.825C215.752 138.601 215.678 140.226 215.53 142.073C215.382 143.845 215.234 145.691 214.939 147.464C214.717 149.236 214.422 150.935 214.053 152.56C213.683 154.185 213.314 155.588 212.797 156.696H221.809Z" fill="#562212"/>
<path d="M245.52 136.976H236.582V160.093H232.74V133.505H249.361V160.093H245.52V136.976Z" fill="#562212"/>
<path d="M255.643 133.578H258.376L258.967 136.459H259.189C260.518 134.095 262.587 132.914 265.394 132.914C268.201 132.914 270.269 133.948 271.673 136.016C273.076 138.083 273.741 141.555 273.741 146.281C273.741 148.497 273.519 150.491 273.076 152.338C272.633 154.11 271.968 155.661 271.082 156.917C270.195 158.172 269.161 159.132 267.979 159.797C266.723 160.462 265.394 160.757 263.916 160.757C262.882 160.757 262.069 160.683 261.478 160.536C260.888 160.388 260.223 160.166 259.484 159.797V170.728H255.643V133.578ZM259.484 155.957C260.001 156.4 260.518 156.695 261.183 156.99C261.774 157.212 262.66 157.36 263.621 157.36C265.468 157.36 267.019 156.4 268.053 154.479C269.161 152.559 269.678 149.827 269.678 146.281C269.678 144.804 269.604 143.475 269.383 142.219C269.161 141.038 268.866 140.004 268.422 139.117C267.979 138.231 267.462 137.566 266.797 137.123C266.132 136.68 265.32 136.385 264.359 136.385C261.774 136.385 260.075 137.936 259.336 141.112V155.957H259.484Z" fill="#562212"/>
<path d="M291.988 144.805L292.284 140.743H292.062L290.215 145.174L281.203 160.093H278.691V133.505H282.533V149.31L282.237 153.224H282.459L284.232 148.867L293.318 133.579H295.829V160.167H291.988V144.805Z" fill="#562212"/>
<path d="M315.185 148.276H305.951V160.167H302.11V133.579H305.951V144.805H315.185V133.505H319.026V160.093H315.185V148.276Z" fill="#562212"/>
<path d="M338.453 144.805L338.749 140.743H338.527L336.681 145.174L327.742 160.167H325.231V133.579H329.072V149.384L328.776 153.299H328.998L330.771 148.941L339.857 133.653H342.369V160.241H338.527V144.805H338.453Z" fill="#562212"/>
<path d="M366.228 144.362L366.597 139.34H366.376L364.75 143.845L359.801 154.037H358.398L353.227 143.845L351.823 139.34H351.528L351.971 144.362V160.241H348.499V133.653H352.34L358.102 145.174L359.284 148.646H359.358L360.614 145.1L366.006 133.653H369.921V160.241H366.08V144.362H366.228Z" fill="#562212"/>
<path d="M376.051 135.13C377.085 134.465 378.341 134.022 379.818 133.653C381.296 133.283 382.847 133.136 384.472 133.136C385.949 133.136 387.131 133.357 388.092 133.8C388.978 134.244 389.717 134.834 390.234 135.573C390.751 136.312 391.12 137.198 391.268 138.158C391.416 139.118 391.49 140.152 391.49 141.186C391.49 143.328 391.416 145.396 391.342 147.39C391.268 149.384 391.194 151.304 391.194 153.151C391.194 154.48 391.268 155.736 391.342 156.917C391.416 158.099 391.638 159.133 391.859 160.167H388.83L387.87 157.065H387.649C387.131 157.951 386.319 158.764 385.359 159.428C384.324 160.093 382.995 160.462 381.222 160.462C379.301 160.462 377.75 159.798 376.568 158.468C375.386 157.139 374.721 155.292 374.721 152.929C374.721 151.378 374.943 150.123 375.46 149.089C375.977 148.055 376.716 147.242 377.602 146.577C378.562 145.913 379.671 145.47 380.926 145.248C382.182 144.953 383.66 144.879 385.211 144.879C385.58 144.879 385.95 144.879 386.245 144.879C386.614 144.879 386.984 144.879 387.353 144.953C387.427 143.845 387.501 142.885 387.501 141.998C387.501 140.004 387.205 138.527 386.614 137.715C386.023 136.902 384.915 136.459 383.364 136.459C382.404 136.459 381.296 136.607 380.114 136.902C378.932 137.198 377.971 137.567 377.233 138.01L376.051 135.13ZM387.501 147.981C387.131 147.981 386.836 147.907 386.467 147.907C386.097 147.907 385.802 147.907 385.432 147.907C384.62 147.907 383.733 147.981 382.995 148.128C382.182 148.276 381.443 148.498 380.852 148.867C380.188 149.236 379.744 149.679 379.375 150.27C379.006 150.861 378.858 151.6 378.858 152.56C378.858 153.963 379.227 155.071 379.892 155.883C380.557 156.696 381.443 157.065 382.551 157.065C384.029 157.065 385.137 156.696 385.949 156.031C386.762 155.292 387.279 154.554 387.649 153.668V147.981H387.501Z" fill="#562212"/>
<path d="M411.434 136.976H404.859V160.093H401.018V136.976H394.443V133.505H411.36V136.976H411.434Z" fill="#562212"/>
<path d="M429.905 158.321C429.018 159.133 427.984 159.724 426.654 160.093C425.325 160.536 423.995 160.758 422.518 160.758C420.819 160.758 419.415 160.463 418.159 159.798C416.903 159.133 415.943 158.173 415.131 156.991C414.318 155.736 413.727 154.333 413.358 152.634C412.988 150.935 412.767 149.015 412.767 146.873C412.767 142.368 413.579 138.897 415.278 136.533C416.977 134.17 419.267 132.988 422.37 132.988C423.33 132.988 424.364 133.136 425.325 133.358C426.285 133.579 427.171 134.096 427.984 134.835C428.797 135.573 429.388 136.607 429.905 137.937C430.348 139.266 430.643 141.039 430.643 143.18C430.643 143.771 430.643 144.436 430.57 145.101C430.496 145.765 430.422 146.504 430.348 147.242H416.83C416.83 148.793 416.977 150.123 417.199 151.378C417.421 152.634 417.864 153.668 418.381 154.554C418.898 155.44 419.563 156.105 420.449 156.548C421.262 156.991 422.296 157.287 423.552 157.287C424.512 157.287 425.472 157.139 426.433 156.77C427.393 156.401 428.058 155.957 428.575 155.514L429.905 158.321ZM426.876 144.067C426.95 141.408 426.581 139.488 425.768 138.232C424.955 136.976 423.847 136.386 422.444 136.386C420.819 136.386 419.489 136.976 418.529 138.232C417.568 139.488 416.977 141.408 416.83 144.067H426.876Z" fill="#562212"/>
<path d="M446.597 136.977H440.835C440.761 140.005 440.613 142.885 440.392 145.692C440.244 148.498 439.875 151.009 439.431 153.151C438.988 155.293 438.323 157.065 437.511 158.321C436.698 159.65 435.59 160.241 434.26 160.241C433.669 160.241 433.152 160.241 432.709 160.167C432.266 160.094 431.897 159.946 431.527 159.798L432.118 156.475C432.857 156.696 433.522 156.622 434.113 156.327C434.704 156.031 435.221 155.071 435.664 153.52C436.107 151.969 436.403 149.606 436.698 146.43C436.994 143.254 437.141 138.897 437.289 133.432H450.438V160.02H446.597V136.977Z" fill="#562212"/>
<path d="M460.558 143.697C461.297 143.55 461.962 143.476 462.553 143.402C463.217 143.328 463.808 143.328 464.325 143.328C465.803 143.328 467.059 143.55 468.093 143.919C469.127 144.362 469.94 144.879 470.604 145.618C471.269 146.356 471.712 147.169 472.008 148.129C472.303 149.089 472.451 150.123 472.451 151.231C472.451 154.48 471.639 156.77 470.087 158.247C468.536 159.724 466.098 160.463 462.774 160.463C460.706 160.463 458.637 160.389 456.717 160.167V133.579H460.558V143.697ZM460.558 156.696C461.592 156.917 462.626 156.991 463.513 156.991C466.837 156.991 468.536 155.219 468.536 151.748C468.536 150.123 468.167 148.867 467.354 147.981C466.542 147.095 465.36 146.652 463.661 146.652C463.217 146.652 462.7 146.652 462.183 146.725C461.666 146.799 461.149 146.873 460.632 147.021V156.696H460.558Z" fill="#562212"/>
<path d="M491.068 158.838C490.181 159.502 489.147 160.019 488.039 160.315C486.931 160.61 485.749 160.758 484.493 160.758C482.794 160.758 481.391 160.463 480.209 159.798C479.027 159.133 478.066 158.173 477.328 156.991C476.589 155.736 476.072 154.333 475.703 152.56C475.333 150.861 475.185 148.941 475.185 146.873C475.185 142.368 475.998 138.897 477.623 136.533C479.248 134.17 481.538 132.988 484.567 132.988C485.971 132.988 487.153 133.136 488.113 133.358C489.073 133.579 489.96 133.948 490.698 134.318L489.664 137.641C488.261 136.829 486.709 136.386 485.01 136.386C483.09 136.386 481.686 137.198 480.652 138.897C479.692 140.595 479.175 143.254 479.175 146.873C479.175 148.35 479.248 149.68 479.47 150.935C479.692 152.191 480.061 153.299 480.504 154.259C481.021 155.219 481.612 155.957 482.425 156.474C483.237 156.991 484.198 157.287 485.38 157.287C486.266 157.287 487.153 157.139 487.965 156.844C488.778 156.548 489.443 156.179 489.886 155.736L491.068 158.838Z" fill="#562212"/>
<path d="M501.114 148.202H499.119V160.167H495.278V133.579H499.119V145.543L500.892 144.805L507.393 133.505H511.456L505.103 144.214L503.256 145.986L505.546 148.128L512.342 160.167H507.762L501.114 148.202Z" fill="#562212"/>
<path d="M529.11 144.805L529.406 140.743H529.184L527.337 145.174L518.325 160.093H515.814V133.505H519.655V149.31L519.359 153.224H519.581L521.354 148.867L530.44 133.579H532.952V160.167H529.11V144.805Z" fill="#562212"/>
<path d="M552.455 144.805L552.751 140.743H552.529L550.683 145.174L541.67 160.093H539.159V133.505H543V149.31L542.705 153.224H542.926L544.699 148.867L553.785 133.579H556.297V160.167H552.455V144.805ZM544.477 122.796C544.625 124.421 545.068 125.602 545.807 126.267C546.472 126.932 547.285 127.301 548.245 127.301C549.205 127.301 549.944 126.932 550.683 126.193C551.347 125.455 551.791 124.347 552.012 122.87L554.967 123.756C554.672 125.898 553.933 127.523 552.677 128.63C551.421 129.738 549.944 130.329 548.245 130.329C547.432 130.329 546.62 130.181 545.881 129.96C545.142 129.738 544.404 129.369 543.813 128.852C543.222 128.335 542.705 127.67 542.261 126.858C541.818 126.046 541.523 125.085 541.375 123.904L544.477 122.796Z" fill="#562212"/>
<path d="M583.482 160.315C582.965 160.536 582.448 160.684 581.931 160.684C581.414 160.684 580.97 160.758 580.527 160.758C577.868 160.758 575.873 159.65 574.544 157.435C573.14 155.219 572.475 151.674 572.475 146.799C572.475 142.073 573.214 138.601 574.765 136.386C576.316 134.17 578.533 133.062 581.414 133.062C582.226 133.062 582.891 133.136 583.482 133.284V122.87H587.323V133.358C587.84 133.284 588.284 133.21 588.653 133.136C589.096 133.136 589.465 133.062 589.761 133.062C591.164 133.062 592.42 133.284 593.454 133.727C594.489 134.17 595.375 134.909 596.114 135.943C596.852 136.977 597.37 138.306 597.739 140.005C598.108 141.703 598.256 143.771 598.256 146.208C598.256 151.009 597.517 154.628 595.966 157.065C594.489 159.503 592.346 160.684 589.539 160.684C589.244 160.684 588.874 160.684 588.357 160.61C587.84 160.536 587.471 160.463 587.175 160.315V170.655H583.334V160.315H583.482ZM581.487 157.508C581.857 157.508 582.152 157.508 582.522 157.435C582.817 157.435 583.186 157.361 583.556 157.213V136.607C582.965 136.46 582.3 136.386 581.561 136.386C579.862 136.386 578.606 137.198 577.646 138.823C576.686 140.448 576.243 143.107 576.243 146.799C576.243 150.049 576.686 152.634 577.498 154.554C578.385 156.548 579.715 157.508 581.487 157.508ZM589.096 136.386C588.727 136.386 588.431 136.386 588.21 136.386C587.988 136.386 587.619 136.46 587.249 136.607V157.213C587.545 157.287 587.84 157.361 588.21 157.361C588.579 157.361 588.948 157.361 589.318 157.361C592.79 157.361 594.563 153.668 594.563 146.208C594.563 142.959 594.193 140.448 593.381 138.823C592.494 137.272 591.091 136.386 589.096 136.386Z" fill="#562212"/>
<path d="M601.947 146.872C601.947 142.072 602.76 138.6 604.385 136.311C606.01 134.095 608.374 132.914 611.403 132.914C614.653 132.914 617.091 134.095 618.642 136.385C620.193 138.674 620.932 142.146 620.932 146.872C620.932 151.673 620.119 155.218 618.42 157.434C616.721 159.649 614.431 160.757 611.403 160.757C608.152 160.757 605.715 159.575 604.163 157.286C602.686 154.996 601.947 151.525 601.947 146.872ZM605.936 146.872C605.936 148.423 606.01 149.827 606.232 151.156C606.453 152.411 606.749 153.519 607.192 154.479C607.635 155.366 608.226 156.104 608.891 156.621C609.63 157.138 610.442 157.36 611.476 157.36C613.323 157.36 614.727 156.547 615.613 154.923C616.5 153.298 617.017 150.639 617.017 146.946C617.017 145.395 616.943 143.992 616.721 142.736C616.5 141.407 616.204 140.299 615.761 139.413C615.318 138.527 614.727 137.788 614.062 137.271C613.323 136.754 612.511 136.533 611.476 136.533C609.704 136.533 608.3 137.345 607.34 139.044C606.379 140.521 605.936 143.18 605.936 146.872Z" fill="#562212"/>
<path d="M626.104 133.578H628.837L629.428 136.459H629.65C630.979 134.095 633.048 132.914 635.855 132.914C638.662 132.914 640.73 133.948 642.134 136.016C643.537 138.083 644.202 141.555 644.202 146.281C644.202 148.497 643.981 150.491 643.537 152.338C643.094 154.11 642.429 155.661 641.543 156.917C640.656 158.172 639.622 159.132 638.44 159.797C637.184 160.462 635.855 160.757 634.377 160.757C633.343 160.757 632.531 160.683 631.94 160.536C631.349 160.388 630.684 160.166 629.945 159.797V170.728H626.104V133.578ZM629.945 155.957C630.462 156.4 630.979 156.695 631.644 156.99C632.235 157.212 633.122 157.36 634.082 157.36C635.929 157.36 637.48 156.4 638.514 154.479C639.622 152.559 640.139 149.827 640.139 146.281C640.139 144.804 640.065 143.475 639.844 142.219C639.622 141.038 639.327 140.004 638.883 139.117C638.44 138.231 637.923 137.566 637.258 137.123C636.593 136.68 635.781 136.385 634.821 136.385C632.235 136.385 630.536 137.936 629.797 141.112V155.957H629.945Z" fill="#562212"/>
<path d="M655.283 150.713L656.391 155.883H656.686L657.499 150.713L661.562 133.505H665.477L659.124 157.36C658.607 159.281 658.164 161.053 657.647 162.752C657.13 164.45 656.613 165.854 656.022 167.109C655.431 168.365 654.766 169.325 654.027 169.99C653.288 170.654 652.476 171.024 651.442 171.024C650.481 171.024 649.595 170.876 648.856 170.58L649.521 166.962C650.038 167.109 650.481 167.183 650.998 167.035C651.515 166.962 651.959 166.592 652.402 166.149C652.845 165.632 653.288 164.894 653.658 163.933C654.027 162.973 654.322 161.718 654.618 160.167L645.975 133.579H650.333L655.283 150.713Z" fill="#562212"/>
<path d="M686.306 144.362L686.676 139.34H686.454L684.829 143.845L679.879 154.037H678.476L673.305 143.845L671.901 139.34H671.606L672.049 144.362V160.241H668.577V133.653H672.418L678.18 145.174L679.362 148.646H679.436L680.692 145.1L686.085 133.653H690V160.241H686.158V144.362H686.306Z" fill="#562212"/>
<path d="M142.694 180.022C143.207 179.993 143.743 179.956 144.3 179.912C144.872 179.868 145.576 179.846 146.412 179.846C147.864 179.846 148.905 180.073 149.536 180.528C150.167 180.968 150.482 181.643 150.482 182.552C150.482 183.065 150.328 183.571 150.02 184.07C149.727 184.554 149.235 184.913 148.546 185.148V185.236C149.411 185.397 150.02 185.698 150.372 186.138C150.724 186.578 150.9 187.165 150.9 187.898C150.9 189.042 150.489 189.871 149.668 190.384C148.847 190.897 147.615 191.154 145.972 191.154C145.356 191.154 144.784 191.132 144.256 191.088C143.728 191.059 143.207 191.022 142.694 190.978V180.022ZM144.454 189.526C144.733 189.555 145.004 189.577 145.268 189.592C145.547 189.607 145.869 189.614 146.236 189.614C147.219 189.614 147.945 189.475 148.414 189.196C148.898 188.917 149.14 188.441 149.14 187.766C149.14 187.238 148.935 186.813 148.524 186.49C148.128 186.153 147.417 185.984 146.39 185.984H144.454V189.526ZM146.61 184.642C146.874 184.642 147.131 184.598 147.38 184.51C147.629 184.422 147.849 184.305 148.04 184.158C148.245 183.997 148.407 183.813 148.524 183.608C148.656 183.403 148.722 183.183 148.722 182.948C148.722 182.361 148.546 181.958 148.194 181.738C147.842 181.503 147.226 181.386 146.346 181.386C145.877 181.386 145.503 181.393 145.224 181.408C144.96 181.423 144.703 181.437 144.454 181.452V184.642H146.61ZM157.778 180H158.988L159.318 181.32H159.406C159.743 180.807 160.176 180.418 160.704 180.154C161.246 179.875 161.862 179.736 162.552 179.736C164.018 179.736 165.111 180.169 165.83 181.034C166.548 181.899 166.908 183.315 166.908 185.28C166.908 186.204 166.783 187.04 166.534 187.788C166.299 188.521 165.962 189.145 165.522 189.658C165.082 190.171 164.546 190.567 163.916 190.846C163.3 191.125 162.61 191.264 161.848 191.264C161.305 191.264 160.872 191.227 160.55 191.154C160.242 191.095 159.904 190.985 159.538 190.824V195.4H157.778V180ZM162.222 181.276C161.474 181.276 160.88 181.474 160.44 181.87C160.014 182.251 159.714 182.838 159.538 183.63V189.086C159.802 189.291 160.102 189.453 160.44 189.57C160.777 189.673 161.224 189.724 161.782 189.724C162.794 189.724 163.593 189.35 164.18 188.602C164.781 187.839 165.082 186.725 165.082 185.258C165.082 184.657 165.03 184.114 164.928 183.63C164.825 183.131 164.656 182.713 164.422 182.376C164.202 182.024 163.908 181.753 163.542 181.562C163.19 181.371 162.75 181.276 162.222 181.276ZM168.624 180.814C169.181 180.477 169.827 180.227 170.56 180.066C171.308 179.905 172.085 179.824 172.892 179.824C173.655 179.824 174.263 179.927 174.718 180.132C175.187 180.337 175.539 180.609 175.774 180.946C176.023 181.269 176.185 181.628 176.258 182.024C176.346 182.42 176.39 182.816 176.39 183.212C176.39 184.092 176.368 184.95 176.324 185.786C176.28 186.622 176.258 187.414 176.258 188.162C176.258 188.705 176.28 189.218 176.324 189.702C176.368 190.186 176.449 190.633 176.566 191.044H175.268L174.806 189.504H174.696C174.564 189.709 174.395 189.915 174.19 190.12C173.999 190.311 173.765 190.487 173.486 190.648C173.207 190.795 172.885 190.919 172.518 191.022C172.151 191.125 171.733 191.176 171.264 191.176C170.795 191.176 170.355 191.103 169.944 190.956C169.548 190.809 169.203 190.604 168.91 190.34C168.617 190.061 168.382 189.731 168.206 189.35C168.045 188.969 167.964 188.536 167.964 188.052C167.964 187.407 168.096 186.871 168.36 186.446C168.624 186.006 168.991 185.661 169.46 185.412C169.944 185.148 170.516 184.965 171.176 184.862C171.851 184.745 172.591 184.686 173.398 184.686C173.603 184.686 173.801 184.686 173.992 184.686C174.197 184.686 174.403 184.701 174.608 184.73C174.652 184.29 174.674 183.894 174.674 183.542C174.674 182.735 174.513 182.171 174.19 181.848C173.867 181.525 173.281 181.364 172.43 181.364C172.181 181.364 171.909 181.386 171.616 181.43C171.337 181.459 171.044 181.511 170.736 181.584C170.443 181.643 170.157 181.723 169.878 181.826C169.614 181.914 169.379 182.017 169.174 182.134L168.624 180.814ZM171.748 189.636C172.159 189.636 172.525 189.585 172.848 189.482C173.171 189.365 173.449 189.225 173.684 189.064C173.919 188.888 174.109 188.697 174.256 188.492C174.417 188.287 174.535 188.089 174.608 187.898V186.072C174.403 186.057 174.19 186.05 173.97 186.05C173.765 186.035 173.559 186.028 173.354 186.028C172.899 186.028 172.452 186.057 172.012 186.116C171.587 186.16 171.205 186.255 170.868 186.402C170.545 186.534 170.281 186.725 170.076 186.974C169.885 187.209 169.79 187.509 169.79 187.876C169.79 188.389 169.973 188.815 170.34 189.152C170.707 189.475 171.176 189.636 171.748 189.636ZM187.92 184.466L188.052 182.376H187.942L187.15 184.07L184.488 188.382H183.872L181.1 184.07L180.374 182.376H180.286L180.462 184.444V191H178.834V180H180.572L183.652 184.928L184.29 186.204H184.334L184.994 184.884L187.876 180H189.636V191H187.92V184.466ZM194.906 186.05H193.894V191H192.134V180H193.894V184.972L194.84 184.664L198.36 180H200.274L196.864 184.422L195.94 185.148L197.084 186.028L200.758 191H198.58L194.906 186.05ZM201.584 180.814C202.141 180.477 202.786 180.227 203.52 180.066C204.268 179.905 205.045 179.824 205.852 179.824C206.614 179.824 207.223 179.927 207.678 180.132C208.147 180.337 208.499 180.609 208.734 180.946C208.983 181.269 209.144 181.628 209.218 182.024C209.306 182.42 209.35 182.816 209.35 183.212C209.35 184.092 209.328 184.95 209.284 185.786C209.24 186.622 209.218 187.414 209.218 188.162C209.218 188.705 209.24 189.218 209.284 189.702C209.328 190.186 209.408 190.633 209.526 191.044H208.228L207.766 189.504H207.656C207.524 189.709 207.355 189.915 207.15 190.12C206.959 190.311 206.724 190.487 206.446 190.648C206.167 190.795 205.844 190.919 205.478 191.022C205.111 191.125 204.693 191.176 204.224 191.176C203.754 191.176 203.314 191.103 202.904 190.956C202.508 190.809 202.163 190.604 201.87 190.34C201.576 190.061 201.342 189.731 201.166 189.35C201.004 188.969 200.924 188.536 200.924 188.052C200.924 187.407 201.056 186.871 201.32 186.446C201.584 186.006 201.95 185.661 202.42 185.412C202.904 185.148 203.476 184.965 204.136 184.862C204.81 184.745 205.551 184.686 206.358 184.686C206.563 184.686 206.761 184.686 206.952 184.686C207.157 184.686 207.362 184.701 207.568 184.73C207.612 184.29 207.634 183.894 207.634 183.542C207.634 182.735 207.472 182.171 207.15 181.848C206.827 181.525 206.24 181.364 205.39 181.364C205.14 181.364 204.869 181.386 204.576 181.43C204.297 181.459 204.004 181.511 203.696 181.584C203.402 181.643 203.116 181.723 202.838 181.826C202.574 181.914 202.339 182.017 202.134 182.134L201.584 180.814ZM204.708 189.636C205.118 189.636 205.485 189.585 205.808 189.482C206.13 189.365 206.409 189.225 206.644 189.064C206.878 188.888 207.069 188.697 207.216 188.492C207.377 188.287 207.494 188.089 207.568 187.898V186.072C207.362 186.057 207.15 186.05 206.93 186.05C206.724 186.035 206.519 186.028 206.314 186.028C205.859 186.028 205.412 186.057 204.972 186.116C204.546 186.16 204.165 186.255 203.828 186.402C203.505 186.534 203.241 186.725 203.036 186.974C202.845 187.209 202.75 187.509 202.75 187.876C202.75 188.389 202.933 188.815 203.3 189.152C203.666 189.475 204.136 189.636 204.708 189.636ZM214.676 185.368L210.98 180H213.136L215.226 183.036L215.842 184.29L216.48 183.036L218.614 180H220.594L216.876 185.28L220.814 191H218.724L216.392 187.656L215.732 186.336L215.05 187.656L212.674 191H210.716L214.676 185.368ZM233.352 186.138H228.38V191H226.62V180H228.38V184.598H233.352V180H235.112V191H233.352V186.138ZM237.445 180.814C238.002 180.477 238.647 180.227 239.381 180.066C240.129 179.905 240.906 179.824 241.713 179.824C242.475 179.824 243.084 179.927 243.539 180.132C244.008 180.337 244.36 180.609 244.595 180.946C244.844 181.269 245.005 181.628 245.079 182.024C245.167 182.42 245.211 182.816 245.211 183.212C245.211 184.092 245.189 184.95 245.145 185.786C245.101 186.622 245.079 187.414 245.079 188.162C245.079 188.705 245.101 189.218 245.145 189.702C245.189 190.186 245.269 190.633 245.387 191.044H244.089L243.627 189.504H243.517C243.385 189.709 243.216 189.915 243.011 190.12C242.82 190.311 242.585 190.487 242.307 190.648C242.028 190.795 241.705 190.919 241.339 191.022C240.972 191.125 240.554 191.176 240.085 191.176C239.615 191.176 239.175 191.103 238.765 190.956C238.369 190.809 238.024 190.604 237.731 190.34C237.437 190.061 237.203 189.731 237.027 189.35C236.865 188.969 236.785 188.536 236.785 188.052C236.785 187.407 236.917 186.871 237.181 186.446C237.445 186.006 237.811 185.661 238.281 185.412C238.765 185.148 239.337 184.965 239.997 184.862C240.671 184.745 241.412 184.686 242.219 184.686C242.424 184.686 242.622 184.686 242.813 184.686C243.018 184.686 243.223 184.701 243.429 184.73C243.473 184.29 243.495 183.894 243.495 183.542C243.495 182.735 243.333 182.171 243.011 181.848C242.688 181.525 242.101 181.364 241.251 181.364C241.001 181.364 240.73 181.386 240.437 181.43C240.158 181.459 239.865 181.511 239.557 181.584C239.263 181.643 238.977 181.723 238.699 181.826C238.435 181.914 238.2 182.017 237.995 182.134L237.445 180.814ZM240.569 189.636C240.979 189.636 241.346 189.585 241.669 189.482C241.991 189.365 242.27 189.225 242.505 189.064C242.739 188.888 242.93 188.697 243.077 188.492C243.238 188.287 243.355 188.089 243.429 187.898V186.072C243.223 186.057 243.011 186.05 242.791 186.05C242.585 186.035 242.38 186.028 242.175 186.028C241.72 186.028 241.273 186.057 240.833 186.116C240.407 186.16 240.026 186.255 239.689 186.402C239.366 186.534 239.102 186.725 238.897 186.974C238.706 187.209 238.611 187.509 238.611 187.876C238.611 188.389 238.794 188.815 239.161 189.152C239.527 189.475 239.997 189.636 240.569 189.636ZM257.533 193.794H256.345L256.015 191H247.655V180H249.415V189.46H254.189V180H255.949V189.46H257.533V193.794ZM265.691 184.488L265.757 183.124H265.691L264.789 184.532L259.839 191H258.827V180H260.587V186.71L260.521 188.008H260.609L261.467 186.644L266.417 180H267.451V191H265.691V184.488ZM269.341 185.5C269.341 183.637 269.752 182.215 270.573 181.232C271.409 180.235 272.604 179.736 274.159 179.736C274.98 179.736 275.692 179.875 276.293 180.154C276.909 180.418 277.415 180.807 277.811 181.32C278.207 181.819 278.5 182.427 278.691 183.146C278.882 183.85 278.977 184.635 278.977 185.5C278.977 187.363 278.559 188.793 277.723 189.79C276.902 190.773 275.714 191.264 274.159 191.264C273.338 191.264 272.619 191.132 272.003 190.868C271.402 190.589 270.903 190.201 270.507 189.702C270.111 189.189 269.818 188.58 269.627 187.876C269.436 187.157 269.341 186.365 269.341 185.5ZM271.167 185.5C271.167 186.057 271.218 186.593 271.321 187.106C271.438 187.619 271.614 188.067 271.849 188.448C272.084 188.829 272.392 189.137 272.773 189.372C273.154 189.607 273.616 189.724 274.159 189.724C276.154 189.739 277.151 188.331 277.151 185.5C277.151 184.928 277.092 184.385 276.975 183.872C276.872 183.359 276.704 182.911 276.469 182.53C276.234 182.149 275.926 181.848 275.545 181.628C275.164 181.393 274.702 181.276 274.159 181.276C272.164 181.261 271.167 182.669 271.167 185.5ZM287.604 186.138H282.632V191H280.872V180H282.632V184.598H287.604V180H289.364V191H287.604V186.138ZM291.697 180.814C292.254 180.477 292.9 180.227 293.633 180.066C294.381 179.905 295.158 179.824 295.965 179.824C296.728 179.824 297.336 179.927 297.791 180.132C298.26 180.337 298.612 180.609 298.847 180.946C299.096 181.269 299.258 181.628 299.331 182.024C299.419 182.42 299.463 182.816 299.463 183.212C299.463 184.092 299.441 184.95 299.397 185.786C299.353 186.622 299.331 187.414 299.331 188.162C299.331 188.705 299.353 189.218 299.397 189.702C299.441 190.186 299.522 190.633 299.639 191.044H298.341L297.879 189.504H297.769C297.637 189.709 297.468 189.915 297.263 190.12C297.072 190.311 296.838 190.487 296.559 190.648C296.28 190.795 295.958 190.919 295.591 191.022C295.224 191.125 294.806 191.176 294.337 191.176C293.868 191.176 293.428 191.103 293.017 190.956C292.621 190.809 292.276 190.604 291.983 190.34C291.69 190.061 291.455 189.731 291.279 189.35C291.118 188.969 291.037 188.536 291.037 188.052C291.037 187.407 291.169 186.871 291.433 186.446C291.697 186.006 292.064 185.661 292.533 185.412C293.017 185.148 293.589 184.965 294.249 184.862C294.924 184.745 295.664 184.686 296.471 184.686C296.676 184.686 296.874 184.686 297.065 184.686C297.27 184.686 297.476 184.701 297.681 184.73C297.725 184.29 297.747 183.894 297.747 183.542C297.747 182.735 297.586 182.171 297.263 181.848C296.94 181.525 296.354 181.364 295.503 181.364C295.254 181.364 294.982 181.386 294.689 181.43C294.41 181.459 294.117 181.511 293.809 181.584C293.516 181.643 293.23 181.723 292.951 181.826C292.687 181.914 292.452 182.017 292.247 182.134L291.697 180.814ZM294.821 189.636C295.232 189.636 295.598 189.585 295.921 189.482C296.244 189.365 296.522 189.225 296.757 189.064C296.992 188.888 297.182 188.697 297.329 188.492C297.49 188.287 297.608 188.089 297.681 187.898V186.072C297.476 186.057 297.263 186.05 297.043 186.05C296.838 186.035 296.632 186.028 296.427 186.028C295.972 186.028 295.525 186.057 295.085 186.116C294.66 186.16 294.278 186.255 293.941 186.402C293.618 186.534 293.354 186.725 293.149 186.974C292.958 187.209 292.863 187.509 292.863 187.876C292.863 188.389 293.046 188.815 293.413 189.152C293.78 189.475 294.249 189.636 294.821 189.636ZM307.825 181.54H304.635C304.591 182.156 304.547 182.823 304.503 183.542C304.459 184.246 304.393 184.957 304.305 185.676C304.217 186.38 304.1 187.062 303.953 187.722C303.806 188.367 303.616 188.939 303.381 189.438C303.161 189.937 302.882 190.34 302.545 190.648C302.222 190.941 301.834 191.088 301.379 191.088C301.1 191.088 300.858 191.073 300.653 191.044C300.448 191.015 300.264 190.963 300.103 190.89L300.367 189.416C300.543 189.475 300.734 189.504 300.939 189.504C301.232 189.504 301.496 189.379 301.731 189.13C301.966 188.881 302.171 188.411 302.347 187.722C302.523 187.018 302.67 186.05 302.787 184.818C302.904 183.586 302.985 181.98 303.029 180H309.585V191H307.825V181.54ZM313.851 189.46C314.394 189.548 314.915 189.592 315.413 189.592C316.337 189.592 317.019 189.416 317.459 189.064C317.899 188.697 318.119 188.184 318.119 187.524C318.119 186.937 317.907 186.453 317.481 186.072C317.056 185.691 316.389 185.5 315.479 185.5C315.23 185.5 314.959 185.507 314.665 185.522C314.372 185.537 314.101 185.581 313.851 185.654V189.46ZM313.851 184.202C314.203 184.143 314.541 184.107 314.863 184.092C315.186 184.063 315.494 184.048 315.787 184.048C316.55 184.048 317.195 184.136 317.723 184.312C318.251 184.473 318.677 184.701 318.999 184.994C319.337 185.287 319.579 185.639 319.725 186.05C319.872 186.446 319.945 186.871 319.945 187.326C319.945 188.661 319.542 189.629 318.735 190.23C317.943 190.831 316.704 191.132 315.017 191.132C314.079 191.132 313.103 191.088 312.091 191V180H313.851V184.202ZM328.149 186.138H323.177V191H321.417V180H323.177V184.598H328.149V180H329.909V191H328.149V186.138ZM331.801 185.5C331.801 183.637 332.212 182.215 333.033 181.232C333.869 180.235 335.065 179.736 336.619 179.736C337.441 179.736 338.152 179.875 338.753 180.154C339.369 180.418 339.875 180.807 340.271 181.32C340.667 181.819 340.961 182.427 341.151 183.146C341.342 183.85 341.437 184.635 341.437 185.5C341.437 187.363 341.019 188.793 340.183 189.79C339.362 190.773 338.174 191.264 336.619 191.264C335.798 191.264 335.079 191.132 334.463 190.868C333.862 190.589 333.363 190.201 332.967 189.702C332.571 189.189 332.278 188.58 332.087 187.876C331.897 187.157 331.801 186.365 331.801 185.5ZM333.627 185.5C333.627 186.057 333.679 186.593 333.781 187.106C333.899 187.619 334.075 188.067 334.309 188.448C334.544 188.829 334.852 189.137 335.233 189.372C335.615 189.607 336.077 189.724 336.619 189.724C338.614 189.739 339.611 188.331 339.611 185.5C339.611 184.928 339.553 184.385 339.435 183.872C339.333 183.359 339.164 182.911 338.929 182.53C338.695 182.149 338.387 181.848 338.005 181.628C337.624 181.393 337.162 181.276 336.619 181.276C334.625 181.261 333.627 182.669 333.627 185.5ZM349.756 181.54H345.092V191H343.332V180H349.756V181.54ZM349.614 185.5C349.614 183.637 350.024 182.215 350.846 181.232C351.682 180.235 352.877 179.736 354.432 179.736C355.253 179.736 355.964 179.875 356.566 180.154C357.182 180.418 357.688 180.807 358.084 181.32C358.48 181.819 358.773 182.427 358.964 183.146C359.154 183.85 359.25 184.635 359.25 185.5C359.25 187.363 358.832 188.793 357.996 189.79C357.174 190.773 355.986 191.264 354.432 191.264C353.61 191.264 352.892 191.132 352.276 190.868C351.674 190.589 351.176 190.201 350.78 189.702C350.384 189.189 350.09 188.58 349.9 187.876C349.709 187.157 349.614 186.365 349.614 185.5ZM351.44 185.5C351.44 186.057 351.491 186.593 351.594 187.106C351.711 187.619 351.887 188.067 352.122 188.448C352.356 188.829 352.664 189.137 353.046 189.372C353.427 189.607 353.889 189.724 354.432 189.724C356.426 189.739 357.424 188.331 357.424 185.5C357.424 184.928 357.365 184.385 357.248 183.872C357.145 183.359 356.976 182.911 356.742 182.53C356.507 182.149 356.199 181.848 355.818 181.628C355.436 181.393 354.974 181.276 354.432 181.276C352.437 181.261 351.44 182.669 351.44 185.5ZM372.752 181.54H367.89V191H366.13V180H374.512V191H372.752V181.54ZM377.023 180H378.233L378.563 181.32H378.651C378.989 180.807 379.421 180.418 379.949 180.154C380.492 179.875 381.108 179.736 381.797 179.736C383.264 179.736 384.357 180.169 385.075 181.034C385.794 181.899 386.153 183.315 386.153 185.28C386.153 186.204 386.029 187.04 385.779 187.788C385.545 188.521 385.207 189.145 384.767 189.658C384.327 190.171 383.792 190.567 383.161 190.846C382.545 191.125 381.856 191.264 381.093 191.264C380.551 191.264 380.118 191.227 379.795 191.154C379.487 191.095 379.15 190.985 378.783 190.824V195.4H377.023V180ZM381.467 181.276C380.719 181.276 380.125 181.474 379.685 181.87C379.26 182.251 378.959 182.838 378.783 183.63V189.086C379.047 189.291 379.348 189.453 379.685 189.57C380.023 189.673 380.47 189.724 381.027 189.724C382.039 189.724 382.839 189.35 383.425 188.602C384.027 187.839 384.327 186.725 384.327 185.258C384.327 184.657 384.276 184.114 384.173 183.63C384.071 183.131 383.902 182.713 383.667 182.376C383.447 182.024 383.154 181.753 382.787 181.562C382.435 181.371 381.995 181.276 381.467 181.276ZM387.43 185.5C387.43 183.637 387.84 182.215 388.662 181.232C389.498 180.235 390.693 179.736 392.248 179.736C393.069 179.736 393.78 179.875 394.382 180.154C394.998 180.418 395.504 180.807 395.9 181.32C396.296 181.819 396.589 182.427 396.78 183.146C396.97 183.85 397.066 184.635 397.066 185.5C397.066 187.363 396.648 188.793 395.812 189.79C394.99 190.773 393.802 191.264 392.248 191.264C391.426 191.264 390.708 191.132 390.092 190.868C389.49 190.589 388.992 190.201 388.596 189.702C388.2 189.189 387.906 188.58 387.716 187.876C387.525 187.157 387.43 186.365 387.43 185.5ZM389.256 185.5C389.256 186.057 389.307 186.593 389.41 187.106C389.527 187.619 389.703 188.067 389.938 188.448C390.172 188.829 390.48 189.137 390.862 189.372C391.243 189.607 391.705 189.724 392.248 189.724C394.242 189.739 395.24 188.331 395.24 185.5C395.24 184.928 395.181 184.385 395.064 183.872C394.961 183.359 394.792 182.911 394.558 182.53C394.323 182.149 394.015 181.848 393.634 181.628C393.252 181.393 392.79 181.276 392.248 181.276C390.253 181.261 389.256 182.669 389.256 185.5ZM406.99 190.12C406.55 190.472 405.993 190.751 405.318 190.956C404.658 191.161 403.954 191.264 403.206 191.264C402.37 191.264 401.644 191.132 401.028 190.868C400.412 190.589 399.906 190.201 399.51 189.702C399.114 189.189 398.821 188.58 398.63 187.876C398.44 187.172 398.344 186.38 398.344 185.5C398.344 183.623 398.762 182.193 399.598 181.21C400.434 180.227 401.63 179.736 403.184 179.736C403.683 179.736 404.182 179.795 404.68 179.912C405.179 180.015 405.626 180.22 406.022 180.528C406.418 180.836 406.741 181.276 406.99 181.848C407.24 182.405 407.364 183.146 407.364 184.07C407.364 184.554 407.32 185.089 407.232 185.676H400.17C400.17 186.321 400.236 186.893 400.368 187.392C400.5 187.891 400.706 188.316 400.984 188.668C401.263 189.005 401.622 189.269 402.062 189.46C402.517 189.636 403.067 189.724 403.712 189.724C404.211 189.724 404.71 189.636 405.208 189.46C405.707 189.284 406.081 189.079 406.33 188.844L406.99 190.12ZM403.206 181.276C402.341 181.276 401.644 181.503 401.116 181.958C400.603 182.413 400.295 183.19 400.192 184.29H405.648C405.648 183.175 405.436 182.398 405.01 181.958C404.585 181.503 403.984 181.276 403.206 181.276ZM412.024 186.05H411.012V191H409.252V180H411.012V184.972L411.958 184.664L415.478 180H417.392L413.982 184.422L413.058 185.148L414.202 186.028L417.876 191H415.698L412.024 186.05ZM425.896 181.54H422.442V191H420.682V181.54H417.228V180H425.896V181.54ZM426.588 180.814C427.145 180.477 427.791 180.227 428.524 180.066C429.272 179.905 430.049 179.824 430.856 179.824C431.619 179.824 432.227 179.927 432.682 180.132C433.151 180.337 433.503 180.609 433.738 180.946C433.987 181.269 434.149 181.628 434.222 182.024C434.31 182.42 434.354 182.816 434.354 183.212C434.354 184.092 434.332 184.95 434.288 185.786C434.244 186.622 434.222 187.414 434.222 188.162C434.222 188.705 434.244 189.218 434.288 189.702C434.332 190.186 434.413 190.633 434.53 191.044H433.232L432.77 189.504H432.66C432.528 189.709 432.359 189.915 432.154 190.12C431.963 190.311 431.729 190.487 431.45 190.648C431.171 190.795 430.849 190.919 430.482 191.022C430.115 191.125 429.697 191.176 429.228 191.176C428.759 191.176 428.319 191.103 427.908 190.956C427.512 190.809 427.167 190.604 426.874 190.34C426.581 190.061 426.346 189.731 426.17 189.35C426.009 188.969 425.928 188.536 425.928 188.052C425.928 187.407 426.06 186.871 426.324 186.446C426.588 186.006 426.955 185.661 427.424 185.412C427.908 185.148 428.48 184.965 429.14 184.862C429.815 184.745 430.555 184.686 431.362 184.686C431.567 184.686 431.765 184.686 431.956 184.686C432.161 184.686 432.367 184.701 432.572 184.73C432.616 184.29 432.638 183.894 432.638 183.542C432.638 182.735 432.477 182.171 432.154 181.848C431.831 181.525 431.245 181.364 430.394 181.364C430.145 181.364 429.873 181.386 429.58 181.43C429.301 181.459 429.008 181.511 428.7 181.584C428.407 181.643 428.121 181.723 427.842 181.826C427.578 181.914 427.343 182.017 427.138 182.134L426.588 180.814ZM429.712 189.636C430.123 189.636 430.489 189.585 430.812 189.482C431.135 189.365 431.413 189.225 431.648 189.064C431.883 188.888 432.073 188.697 432.22 188.492C432.381 188.287 432.499 188.089 432.572 187.898V186.072C432.367 186.057 432.154 186.05 431.934 186.05C431.729 186.035 431.523 186.028 431.318 186.028C430.863 186.028 430.416 186.057 429.976 186.116C429.551 186.16 429.169 186.255 428.832 186.402C428.509 186.534 428.245 186.725 428.04 186.974C427.849 187.209 427.754 187.509 427.754 187.876C427.754 188.389 427.937 188.815 428.304 189.152C428.671 189.475 429.14 189.636 429.712 189.636ZM448.405 181.54H443.543V191H441.783V180H450.165V191H448.405V181.54ZM452.061 185.5C452.061 183.637 452.471 182.215 453.293 181.232C454.129 180.235 455.324 179.736 456.879 179.736C457.7 179.736 458.411 179.875 459.013 180.154C459.629 180.418 460.135 180.807 460.531 181.32C460.927 181.819 461.22 182.427 461.411 183.146C461.601 183.85 461.697 184.635 461.697 185.5C461.697 187.363 461.279 188.793 460.443 189.79C459.621 190.773 458.433 191.264 456.879 191.264C456.057 191.264 455.339 191.132 454.723 190.868C454.121 190.589 453.623 190.201 453.227 189.702C452.831 189.189 452.537 188.58 452.347 187.876C452.156 187.157 452.061 186.365 452.061 185.5ZM453.887 185.5C453.887 186.057 453.938 186.593 454.041 187.106C454.158 187.619 454.334 188.067 454.569 188.448C454.803 188.829 455.111 189.137 455.493 189.372C455.874 189.607 456.336 189.724 456.879 189.724C458.873 189.739 459.871 188.331 459.871 185.5C459.871 184.928 459.812 184.385 459.695 183.872C459.592 183.359 459.423 182.911 459.189 182.53C458.954 182.149 458.646 181.848 458.265 181.628C457.883 181.393 457.421 181.276 456.879 181.276C454.884 181.261 453.887 182.669 453.887 185.5ZM475.199 181.54H470.337V191H468.577V180H476.959V191H475.199V181.54ZM478.854 185.5C478.854 183.637 479.265 182.215 480.086 181.232C480.922 180.235 482.118 179.736 483.672 179.736C484.494 179.736 485.205 179.875 485.806 180.154C486.422 180.418 486.928 180.807 487.324 181.32C487.72 181.819 488.014 182.427 488.204 183.146C488.395 183.85 488.49 184.635 488.49 185.5C488.49 187.363 488.072 188.793 487.236 189.79C486.415 190.773 485.227 191.264 483.672 191.264C482.851 191.264 482.132 191.132 481.516 190.868C480.915 190.589 480.416 190.201 480.02 189.702C479.624 189.189 479.331 188.58 479.14 187.876C478.95 187.157 478.854 186.365 478.854 185.5ZM480.68 185.5C480.68 186.057 480.732 186.593 480.834 187.106C480.952 187.619 481.128 188.067 481.362 188.448C481.597 188.829 481.905 189.137 482.286 189.372C482.668 189.607 483.13 189.724 483.672 189.724C485.667 189.739 486.664 188.331 486.664 185.5C486.664 184.928 486.606 184.385 486.488 183.872C486.386 183.359 486.217 182.911 485.982 182.53C485.748 182.149 485.44 181.848 485.058 181.628C484.677 181.393 484.215 181.276 483.672 181.276C481.678 181.261 480.68 182.669 480.68 185.5ZM499.98 193.794H498.792L498.462 191H490.19L489.86 193.794H488.672V189.46H489.97C490.088 189.299 490.242 189.013 490.432 188.602C490.623 188.177 490.806 187.59 490.982 186.842C491.173 186.079 491.334 185.141 491.466 184.026C491.613 182.897 491.701 181.555 491.73 180H498.374V189.46H499.98V193.794ZM496.614 189.46V181.54H493.314C493.285 182.156 493.234 182.831 493.16 183.564C493.087 184.283 492.984 185.009 492.852 185.742C492.735 186.461 492.581 187.143 492.39 187.788C492.2 188.433 491.98 188.991 491.73 189.46H496.614ZM511.669 193.794H510.481L510.151 191H501.879L501.549 193.794H500.361V189.46H501.659C501.776 189.299 501.93 189.013 502.121 188.602C502.311 188.177 502.495 187.59 502.671 186.842C502.861 186.079 503.023 185.141 503.155 184.026C503.301 182.897 503.389 181.555 503.419 180H510.063V189.46H511.669V193.794ZM508.303 189.46V181.54H505.003C504.973 182.156 504.922 182.831 504.849 183.564C504.775 184.283 504.673 185.009 504.541 185.742C504.423 186.461 504.269 187.143 504.079 187.788C503.888 188.433 503.668 188.991 503.419 189.46H508.303ZM520.997 190.12C520.557 190.472 520 190.751 519.325 190.956C518.665 191.161 517.961 191.264 517.213 191.264C516.377 191.264 515.651 191.132 515.035 190.868C514.419 190.589 513.913 190.201 513.517 189.702C513.121 189.189 512.828 188.58 512.637 187.876C512.446 187.172 512.351 186.38 512.351 185.5C512.351 183.623 512.769 182.193 513.605 181.21C514.441 180.227 515.636 179.736 517.191 179.736C517.69 179.736 518.188 179.795 518.687 179.912C519.186 180.015 519.633 180.22 520.029 180.528C520.425 180.836 520.748 181.276 520.997 181.848C521.246 182.405 521.371 183.146 521.371 184.07C521.371 184.554 521.327 185.089 521.239 185.676H514.177C514.177 186.321 514.243 186.893 514.375 187.392C514.507 187.891 514.712 188.316 514.991 188.668C515.27 189.005 515.629 189.269 516.069 189.46C516.524 189.636 517.074 189.724 517.719 189.724C518.218 189.724 518.716 189.636 519.215 189.46C519.714 189.284 520.088 189.079 520.337 188.844L520.997 190.12ZM517.213 181.276C516.348 181.276 515.651 181.503 515.123 181.958C514.61 182.413 514.302 183.19 514.199 184.29H519.655C519.655 183.175 519.442 182.398 519.017 181.958C518.592 181.503 517.99 181.276 517.213 181.276ZM523.259 180H524.469L524.799 181.32H524.887C525.224 180.807 525.657 180.418 526.185 180.154C526.727 179.875 527.343 179.736 528.033 179.736C529.499 179.736 530.592 180.169 531.311 181.034C532.029 181.899 532.389 183.315 532.389 185.28C532.389 186.204 532.264 187.04 532.015 187.788C531.78 188.521 531.443 189.145 531.003 189.658C530.563 190.171 530.027 190.567 529.397 190.846C528.781 191.125 528.091 191.264 527.329 191.264C526.786 191.264 526.353 191.227 526.031 191.154C525.723 191.095 525.385 190.985 525.019 190.824V195.4H523.259V180ZM527.703 181.276C526.955 181.276 526.361 181.474 525.921 181.87C525.495 182.251 525.195 182.838 525.019 183.63V189.086C525.283 189.291 525.583 189.453 525.921 189.57C526.258 189.673 526.705 189.724 527.263 189.724C528.275 189.724 529.074 189.35 529.661 188.602C530.262 187.839 530.563 186.725 530.563 185.258C530.563 184.657 530.511 184.114 530.409 183.63C530.306 183.131 530.137 182.713 529.903 182.376C529.683 182.024 529.389 181.753 529.023 181.562C528.671 181.371 528.231 181.276 527.703 181.276ZM537.738 186.138L534.504 191H532.48L535.956 185.962L536.704 185.302L535.582 184.466L532.722 180H534.592L537.628 184.752H538.772V180H540.488V184.972L541.522 184.664L544.58 180H546.428L543.436 184.466L542.578 185.17L543.7 186.05L546.956 191H544.866L541.632 186.05H540.488V191H538.772V185.83L537.738 186.138ZM550.546 186.05H549.534V191H547.774V180H549.534V184.972L550.48 184.664L554 180H555.914L552.504 184.422L551.58 185.148L552.724 186.028L556.398 191H554.22L550.546 186.05ZM565.194 190.12C564.754 190.472 564.196 190.751 563.522 190.956C562.862 191.161 562.158 191.264 561.41 191.264C560.574 191.264 559.848 191.132 559.232 190.868C558.616 190.589 558.11 190.201 557.714 189.702C557.318 189.189 557.024 188.58 556.834 187.876C556.643 187.172 556.548 186.38 556.548 185.5C556.548 183.623 556.966 182.193 557.802 181.21C558.638 180.227 559.833 179.736 561.388 179.736C561.886 179.736 562.385 179.795 562.884 179.912C563.382 180.015 563.83 180.22 564.226 180.528C564.622 180.836 564.944 181.276 565.194 181.848C565.443 182.405 565.568 183.146 565.568 184.07C565.568 184.554 565.524 185.089 565.436 185.676H558.374C558.374 186.321 558.44 186.893 558.572 187.392C558.704 187.891 558.909 188.316 559.188 188.668C559.466 189.005 559.826 189.269 560.266 189.46C560.72 189.636 561.27 189.724 561.916 189.724C562.414 189.724 562.913 189.636 563.412 189.46C563.91 189.284 564.284 189.079 564.534 188.844L565.194 190.12ZM561.41 181.276C560.544 181.276 559.848 181.503 559.32 181.958C558.806 182.413 558.498 183.19 558.396 184.29H563.852C563.852 183.175 563.639 182.398 563.214 181.958C562.788 181.503 562.187 181.276 561.41 181.276ZM581.527 184.466L581.659 182.376H581.549L580.757 184.07L578.095 188.382H577.479L574.707 184.07L573.981 182.376H573.893L574.069 184.444V191H572.441V180H574.179L577.259 184.928L577.897 186.204H577.941L578.601 184.884L581.483 180H583.243V191H581.527V184.466ZM585.564 180.814C586.122 180.477 586.767 180.227 587.5 180.066C588.248 179.905 589.026 179.824 589.832 179.824C590.595 179.824 591.204 179.927 591.658 180.132C592.128 180.337 592.48 180.609 592.714 180.946C592.964 181.269 593.125 181.628 593.198 182.024C593.286 182.42 593.33 182.816 593.33 183.212C593.33 184.092 593.308 184.95 593.264 185.786C593.22 186.622 593.198 187.414 593.198 188.162C593.198 188.705 593.22 189.218 593.264 189.702C593.308 190.186 593.389 190.633 593.506 191.044H592.208L591.746 189.504H591.636C591.504 189.709 591.336 189.915 591.13 190.12C590.94 190.311 590.705 190.487 590.426 190.648C590.148 190.795 589.825 190.919 589.458 191.022C589.092 191.125 588.674 191.176 588.204 191.176C587.735 191.176 587.295 191.103 586.884 190.956C586.488 190.809 586.144 190.604 585.85 190.34C585.557 190.061 585.322 189.731 585.146 189.35C584.985 188.969 584.904 188.536 584.904 188.052C584.904 187.407 585.036 186.871 585.3 186.446C585.564 186.006 585.931 185.661 586.4 185.412C586.884 185.148 587.456 184.965 588.116 184.862C588.791 184.745 589.532 184.686 590.338 184.686C590.544 184.686 590.742 184.686 590.932 184.686C591.138 184.686 591.343 184.701 591.548 184.73C591.592 184.29 591.614 183.894 591.614 183.542C591.614 182.735 591.453 182.171 591.13 181.848C590.808 181.525 590.221 181.364 589.37 181.364C589.121 181.364 588.85 181.386 588.556 181.43C588.278 181.459 587.984 181.511 587.676 181.584C587.383 181.643 587.097 181.723 586.818 181.826C586.554 181.914 586.32 182.017 586.114 182.134L585.564 180.814ZM588.688 189.636C589.099 189.636 589.466 189.585 589.788 189.482C590.111 189.365 590.39 189.225 590.624 189.064C590.859 188.888 591.05 188.697 591.196 188.492C591.358 188.287 591.475 188.089 591.548 187.898V186.072C591.343 186.057 591.13 186.05 590.91 186.05C590.705 186.035 590.5 186.028 590.294 186.028C589.84 186.028 589.392 186.057 588.952 186.116C588.527 186.16 588.146 186.255 587.808 186.402C587.486 186.534 587.222 186.725 587.016 186.974C586.826 187.209 586.73 187.509 586.73 187.876C586.73 188.389 586.914 188.815 587.28 189.152C587.647 189.475 588.116 189.636 588.688 189.636ZM601.693 181.54H598.503C598.459 182.156 598.415 182.823 598.371 183.542C598.327 184.246 598.261 184.957 598.173 185.676C598.085 186.38 597.967 187.062 597.821 187.722C597.674 188.367 597.483 188.939 597.249 189.438C597.029 189.937 596.75 190.34 596.413 190.648C596.09 190.941 595.701 191.088 595.247 191.088C594.968 191.088 594.726 191.073 594.521 191.044C594.315 191.015 594.132 190.963 593.971 190.89L594.235 189.416C594.411 189.475 594.601 189.504 594.807 189.504C595.1 189.504 595.364 189.379 595.599 189.13C595.833 188.881 596.039 188.411 596.215 187.722C596.391 187.018 596.537 186.05 596.655 184.818C596.772 183.586 596.853 181.98 596.897 180H603.453V191H601.693V181.54ZM605.343 185.5C605.343 183.637 605.754 182.215 606.575 181.232C607.411 180.235 608.606 179.736 610.161 179.736C610.982 179.736 611.694 179.875 612.295 180.154C612.911 180.418 613.417 180.807 613.813 181.32C614.209 181.819 614.502 182.427 614.693 183.146C614.884 183.85 614.979 184.635 614.979 185.5C614.979 187.363 614.561 188.793 613.725 189.79C612.904 190.773 611.716 191.264 610.161 191.264C609.34 191.264 608.621 191.132 608.005 190.868C607.404 190.589 606.905 190.201 606.509 189.702C606.113 189.189 605.82 188.58 605.629 187.876C605.438 187.157 605.343 186.365 605.343 185.5ZM607.169 185.5C607.169 186.057 607.22 186.593 607.323 187.106C607.44 187.619 607.616 188.067 607.851 188.448C608.086 188.829 608.394 189.137 608.775 189.372C609.156 189.607 609.618 189.724 610.161 189.724C612.156 189.739 613.153 188.331 613.153 185.5C613.153 184.928 613.094 184.385 612.977 183.872C612.874 183.359 612.706 182.911 612.471 182.53C612.236 182.149 611.928 181.848 611.547 181.628C611.166 181.393 610.704 181.276 610.161 181.276C608.166 181.261 607.169 182.669 607.169 185.5ZM623.298 181.54H618.634V191H616.874V180H623.298V181.54ZM623.155 185.5C623.155 183.637 623.566 182.215 624.387 181.232C625.223 180.235 626.419 179.736 627.973 179.736C628.795 179.736 629.506 179.875 630.107 180.154C630.723 180.418 631.229 180.807 631.625 181.32C632.021 181.819 632.315 182.427 632.505 183.146C632.696 183.85 632.791 184.635 632.791 185.5C632.791 187.363 632.373 188.793 631.537 189.79C630.716 190.773 629.528 191.264 627.973 191.264C627.152 191.264 626.433 191.132 625.817 190.868C625.216 190.589 624.717 190.201 624.321 189.702C623.925 189.189 623.632 188.58 623.441 187.876C623.251 187.157 623.155 186.365 623.155 185.5ZM624.981 185.5C624.981 186.057 625.033 186.593 625.135 187.106C625.253 187.619 625.429 188.067 625.663 188.448C625.898 188.829 626.206 189.137 626.587 189.372C626.969 189.607 627.431 189.724 627.973 189.724C629.968 189.739 630.965 188.331 630.965 185.5C630.965 184.928 630.907 184.385 630.789 183.872C630.687 183.359 630.518 182.911 630.283 182.53C630.049 182.149 629.741 181.848 629.359 181.628C628.978 181.393 628.516 181.276 627.973 181.276C625.979 181.261 624.981 182.669 624.981 185.5ZM149.558 210.488L149.624 209.124H149.558L148.656 210.532L143.706 217H142.694V206H144.454V212.71L144.388 214.008H144.476L145.334 212.644L150.284 206H151.318V217H149.558V210.488ZM166.311 216.274C165.871 216.597 165.35 216.839 164.749 217C164.148 217.176 163.517 217.264 162.857 217.264C162.006 217.264 161.288 217.132 160.701 216.868C160.114 216.589 159.63 216.201 159.249 215.702C158.882 215.189 158.611 214.58 158.435 213.876C158.274 213.157 158.193 212.365 158.193 211.5C158.193 209.637 158.604 208.215 159.425 207.232C160.246 206.235 161.427 205.736 162.967 205.736C163.671 205.736 164.265 205.795 164.749 205.912C165.248 206.015 165.695 206.169 166.091 206.374L165.585 207.892C165.248 207.701 164.874 207.555 164.463 207.452C164.052 207.335 163.612 207.276 163.143 207.276C161.06 207.276 160.019 208.684 160.019 211.5C160.019 212.057 160.07 212.593 160.173 213.106C160.29 213.605 160.474 214.052 160.723 214.448C160.987 214.829 161.324 215.137 161.735 215.372C162.16 215.607 162.681 215.724 163.297 215.724C163.825 215.724 164.294 215.643 164.705 215.482C165.13 215.321 165.475 215.137 165.739 214.932L166.311 216.274ZM167.855 206H169.065L169.395 207.32H169.483C169.82 206.807 170.253 206.418 170.781 206.154C171.323 205.875 171.939 205.736 172.629 205.736C174.095 205.736 175.188 206.169 175.907 207.034C176.625 207.899 176.985 209.315 176.985 211.28C176.985 212.204 176.86 213.04 176.611 213.788C176.376 214.521 176.039 215.145 175.599 215.658C175.159 216.171 174.623 216.567 173.993 216.846C173.377 217.125 172.687 217.264 171.925 217.264C171.382 217.264 170.949 217.227 170.627 217.154C170.319 217.095 169.981 216.985 169.615 216.824V221.4H167.855V206ZM172.299 207.276C171.551 207.276 170.957 207.474 170.517 207.87C170.091 208.251 169.791 208.838 169.615 209.63V215.086C169.879 215.291 170.179 215.453 170.517 215.57C170.854 215.673 171.301 215.724 171.859 215.724C172.871 215.724 173.67 215.35 174.257 214.602C174.858 213.839 175.159 212.725 175.159 211.258C175.159 210.657 175.107 210.114 175.005 209.63C174.902 209.131 174.733 208.713 174.499 208.376C174.279 208.024 173.985 207.753 173.619 207.562C173.267 207.371 172.827 207.276 172.299 207.276ZM186.907 216.12C186.467 216.472 185.91 216.751 185.235 216.956C184.575 217.161 183.871 217.264 183.123 217.264C182.287 217.264 181.561 217.132 180.945 216.868C180.329 216.589 179.823 216.201 179.427 215.702C179.031 215.189 178.738 214.58 178.547 213.876C178.356 213.172 178.261 212.38 178.261 211.5C178.261 209.623 178.679 208.193 179.515 207.21C180.351 206.227 181.546 205.736 183.101 205.736C183.6 205.736 184.098 205.795 184.597 205.912C185.096 206.015 185.543 206.22 185.939 206.528C186.335 206.836 186.658 207.276 186.907 207.848C187.156 208.405 187.281 209.146 187.281 210.07C187.281 210.554 187.237 211.089 187.149 211.676H180.087C180.087 212.321 180.153 212.893 180.285 213.392C180.417 213.891 180.622 214.316 180.901 214.668C181.18 215.005 181.539 215.269 181.979 215.46C182.434 215.636 182.984 215.724 183.629 215.724C184.128 215.724 184.626 215.636 185.125 215.46C185.624 215.284 185.998 215.079 186.247 214.844L186.907 216.12ZM183.123 207.276C182.258 207.276 181.561 207.503 181.033 207.958C180.52 208.413 180.212 209.19 180.109 210.29H185.565C185.565 209.175 185.352 208.398 184.927 207.958C184.502 207.503 183.9 207.276 183.123 207.276ZM198.399 219.794H197.211L196.881 217H188.609L188.279 219.794H187.091V215.46H188.389C188.506 215.299 188.66 215.013 188.851 214.602C189.042 214.177 189.225 213.59 189.401 212.842C189.592 212.079 189.753 211.141 189.885 210.026C190.032 208.897 190.12 207.555 190.149 206H196.793V215.46H198.399V219.794ZM195.033 215.46V207.54H191.733C191.704 208.156 191.652 208.831 191.579 209.564C191.506 210.283 191.403 211.009 191.271 211.742C191.154 212.461 191 213.143 190.809 213.788C190.618 214.433 190.398 214.991 190.149 215.46H195.033ZM206.429 212.138H201.457V217H199.697V206H201.457V210.598H206.429V206H208.189V217H206.429V212.138ZM218.728 216.12C218.288 216.472 217.731 216.751 217.056 216.956C216.396 217.161 215.692 217.264 214.944 217.264C214.108 217.264 213.382 217.132 212.766 216.868C212.15 216.589 211.644 216.201 211.248 215.702C210.852 215.189 210.559 214.58 210.368 213.876C210.177 213.172 210.082 212.38 210.082 211.5C210.082 209.623 210.5 208.193 211.336 207.21C212.172 206.227 213.367 205.736 214.922 205.736C215.421 205.736 215.919 205.795 216.418 205.912C216.917 206.015 217.364 206.22 217.76 206.528C218.156 206.836 218.479 207.276 218.728 207.848C218.977 208.405 219.102 209.146 219.102 210.07C219.102 210.554 219.058 211.089 218.97 211.676H211.908C211.908 212.321 211.974 212.893 212.106 213.392C212.238 213.891 212.443 214.316 212.722 214.668C213.001 215.005 213.36 215.269 213.8 215.46C214.255 215.636 214.805 215.724 215.45 215.724C215.949 215.724 216.447 215.636 216.946 215.46C217.445 215.284 217.819 215.079 218.068 214.844L218.728 216.12ZM214.944 207.276C214.079 207.276 213.382 207.503 212.854 207.958C212.341 208.413 212.033 209.19 211.93 210.29H217.386C217.386 209.175 217.173 208.398 216.748 207.958C216.323 207.503 215.721 207.276 214.944 207.276ZM227.414 207.54H222.75V217H220.99V206H227.414V207.54ZM227.271 211.5C227.271 209.637 227.682 208.215 228.503 207.232C229.339 206.235 230.535 205.736 232.089 205.736C232.911 205.736 233.622 205.875 234.223 206.154C234.839 206.418 235.345 206.807 235.741 207.32C236.137 207.819 236.431 208.427 236.621 209.146C236.812 209.85 236.907 210.635 236.907 211.5C236.907 213.363 236.489 214.793 235.653 215.79C234.832 216.773 233.644 217.264 232.089 217.264C231.268 217.264 230.549 217.132 229.933 216.868C229.332 216.589 228.833 216.201 228.437 215.702C228.041 215.189 227.748 214.58 227.557 213.876C227.367 213.157 227.271 212.365 227.271 211.5ZM229.097 211.5C229.097 212.057 229.149 212.593 229.251 213.106C229.369 213.619 229.545 214.067 229.779 214.448C230.014 214.829 230.322 215.137 230.703 215.372C231.085 215.607 231.547 215.724 232.089 215.724C234.084 215.739 235.081 214.331 235.081 211.5C235.081 210.928 235.023 210.385 234.905 209.872C234.803 209.359 234.634 208.911 234.399 208.53C234.165 208.149 233.857 207.848 233.475 207.628C233.094 207.393 232.632 207.276 232.089 207.276C230.095 207.261 229.097 208.669 229.097 211.5ZM244.799 207.958C245.283 207.254 245.819 206.763 246.405 206.484C246.992 206.191 247.725 206.044 248.605 206.044C249.955 206.044 250.989 206.484 251.707 207.364C252.441 208.244 252.807 209.542 252.807 211.258C252.807 213.238 252.382 214.734 251.531 215.746C250.695 216.758 249.522 217.264 248.011 217.264C246.398 217.264 245.188 216.707 244.381 215.592C243.575 214.477 243.171 212.725 243.171 210.334C243.171 209.073 243.23 207.995 243.347 207.1C243.479 206.205 243.663 205.45 243.897 204.834C244.147 204.218 244.44 203.727 244.777 203.36C245.129 202.993 245.518 202.707 245.943 202.502C246.383 202.282 246.86 202.128 247.373 202.04C247.887 201.952 248.437 201.879 249.023 201.82C249.786 201.747 250.38 201.666 250.805 201.578C251.245 201.475 251.597 201.299 251.861 201.05L252.059 202.634C251.913 202.766 251.751 202.876 251.575 202.964C251.399 203.052 251.187 203.125 250.937 203.184C250.688 203.243 250.387 203.294 250.035 203.338C249.698 203.382 249.302 203.419 248.847 203.448C248.217 203.492 247.659 203.573 247.175 203.69C246.706 203.793 246.295 204.005 245.943 204.328C245.606 204.636 245.335 205.083 245.129 205.67C244.939 206.242 244.807 207.005 244.733 207.958H244.799ZM244.997 211.522C244.997 212.079 245.056 212.615 245.173 213.128C245.291 213.641 245.467 214.096 245.701 214.492C245.951 214.873 246.266 215.174 246.647 215.394C247.029 215.614 247.476 215.724 247.989 215.724C249.001 215.724 249.749 215.365 250.233 214.646C250.732 213.913 250.981 212.835 250.981 211.412C250.981 210.855 250.93 210.341 250.827 209.872C250.725 209.403 250.563 208.999 250.343 208.662C250.123 208.31 249.845 208.046 249.507 207.87C249.17 207.679 248.767 207.584 248.297 207.584C247.153 207.569 246.317 207.907 245.789 208.596C245.261 209.271 244.997 210.246 244.997 211.522ZM261.566 210.488L261.632 209.124H261.566L260.664 210.532L255.714 217H254.702V206H256.462V212.71L256.396 214.008H256.484L257.342 212.644L262.292 206H263.326V217H261.566V210.488ZM266.888 212.094V210.664H268.428C268.692 210.664 268.949 210.62 269.198 210.532C269.462 210.444 269.697 210.327 269.902 210.18C270.107 210.019 270.269 209.835 270.386 209.63C270.518 209.41 270.584 209.183 270.584 208.948C270.584 208.376 270.386 207.973 269.99 207.738C269.594 207.503 269 207.386 268.208 207.386C267.636 207.386 267.108 207.474 266.624 207.65C266.155 207.826 265.788 207.995 265.524 208.156L265.018 206.792C265.458 206.543 265.971 206.323 266.558 206.132C267.159 205.941 267.871 205.846 268.692 205.846C271.127 205.846 272.344 206.748 272.344 208.552C272.344 209.065 272.175 209.571 271.838 210.07C271.515 210.554 271.046 210.899 270.43 211.104V211.192C271.295 211.353 271.897 211.661 272.234 212.116C272.586 212.571 272.762 213.172 272.762 213.92C272.762 214.389 272.667 214.822 272.476 215.218C272.285 215.614 271.999 215.959 271.618 216.252C271.237 216.545 270.753 216.78 270.166 216.956C269.594 217.117 268.927 217.198 268.164 217.198C267.416 217.198 266.793 217.132 266.294 217C265.81 216.868 265.37 216.707 264.974 216.516L265.48 215.064C265.817 215.255 266.221 215.401 266.69 215.504C267.174 215.607 267.695 215.658 268.252 215.658C269.147 215.658 269.829 215.504 270.298 215.196C270.767 214.888 271.002 214.419 271.002 213.788C271.002 213.26 270.782 212.849 270.342 212.556C269.902 212.248 269.176 212.094 268.164 212.094H266.888ZM281.395 212.138H276.423V217H274.663V206H276.423V210.598H281.395V206H283.155V217H281.395V212.138ZM293.694 216.12C293.254 216.472 292.697 216.751 292.022 216.956C291.362 217.161 290.658 217.264 289.91 217.264C289.074 217.264 288.348 217.132 287.732 216.868C287.116 216.589 286.61 216.201 286.214 215.702C285.818 215.189 285.525 214.58 285.334 213.876C285.143 213.172 285.048 212.38 285.048 211.5C285.048 209.623 285.466 208.193 286.302 207.21C287.138 206.227 288.333 205.736 289.888 205.736C290.387 205.736 290.885 205.795 291.384 205.912C291.883 206.015 292.33 206.22 292.726 206.528C293.122 206.836 293.445 207.276 293.694 207.848C293.943 208.405 294.068 209.146 294.068 210.07C294.068 210.554 294.024 211.089 293.936 211.676H286.874C286.874 212.321 286.94 212.893 287.072 213.392C287.204 213.891 287.409 214.316 287.688 214.668C287.967 215.005 288.326 215.269 288.766 215.46C289.221 215.636 289.771 215.724 290.416 215.724C290.915 215.724 291.413 215.636 291.912 215.46C292.411 215.284 292.785 215.079 293.034 214.844L293.694 216.12ZM289.91 207.276C289.045 207.276 288.348 207.503 287.82 207.958C287.307 208.413 286.999 209.19 286.896 210.29H292.352C292.352 209.175 292.139 208.398 291.714 207.958C291.289 207.503 290.687 207.276 289.91 207.276ZM303.221 216.274C302.781 216.597 302.261 216.839 301.659 217C301.058 217.176 300.427 217.264 299.767 217.264C298.917 217.264 298.198 217.132 297.611 216.868C297.025 216.589 296.541 216.201 296.159 215.702C295.793 215.189 295.521 214.58 295.345 213.876C295.184 213.157 295.103 212.365 295.103 211.5C295.103 209.637 295.514 208.215 296.335 207.232C297.157 206.235 298.337 205.736 299.877 205.736C300.581 205.736 301.175 205.795 301.659 205.912C302.158 206.015 302.605 206.169 303.001 206.374L302.495 207.892C302.158 207.701 301.784 207.555 301.373 207.452C300.963 207.335 300.523 207.276 300.053 207.276C297.971 207.276 296.929 208.684 296.929 211.5C296.929 212.057 296.981 212.593 297.083 213.106C297.201 213.605 297.384 214.052 297.633 214.448C297.897 214.829 298.235 215.137 298.645 215.372C299.071 215.607 299.591 215.724 300.207 215.724C300.735 215.724 301.205 215.643 301.615 215.482C302.041 215.321 302.385 215.137 302.649 214.932L303.221 216.274ZM304.589 206.814C305.147 206.477 305.792 206.227 306.525 206.066C307.273 205.905 308.051 205.824 308.857 205.824C309.62 205.824 310.229 205.927 310.683 206.132C311.153 206.337 311.505 206.609 311.739 206.946C311.989 207.269 312.15 207.628 312.223 208.024C312.311 208.42 312.355 208.816 312.355 209.212C312.355 210.092 312.333 210.95 312.289 211.786C312.245 212.622 312.223 213.414 312.223 214.162C312.223 214.705 312.245 215.218 312.289 215.702C312.333 216.186 312.414 216.633 312.531 217.044H311.233L310.771 215.504H310.661C310.529 215.709 310.361 215.915 310.155 216.12C309.965 216.311 309.73 216.487 309.451 216.648C309.173 216.795 308.85 216.919 308.483 217.022C308.117 217.125 307.699 217.176 307.229 217.176C306.76 217.176 306.32 217.103 305.909 216.956C305.513 216.809 305.169 216.604 304.875 216.34C304.582 216.061 304.347 215.731 304.171 215.35C304.01 214.969 303.929 214.536 303.929 214.052C303.929 213.407 304.061 212.871 304.325 212.446C304.589 212.006 304.956 211.661 305.425 211.412C305.909 211.148 306.481 210.965 307.141 210.862C307.816 210.745 308.557 210.686 309.363 210.686C309.569 210.686 309.767 210.686 309.957 210.686C310.163 210.686 310.368 210.701 310.573 210.73C310.617 210.29 310.639 209.894 310.639 209.542C310.639 208.735 310.478 208.171 310.155 207.848C309.833 207.525 309.246 207.364 308.395 207.364C308.146 207.364 307.875 207.386 307.581 207.43C307.303 207.459 307.009 207.511 306.701 207.584C306.408 207.643 306.122 207.723 305.843 207.826C305.579 207.914 305.345 208.017 305.139 208.134L304.589 206.814ZM307.713 215.636C308.124 215.636 308.491 215.585 308.813 215.482C309.136 215.365 309.415 215.225 309.649 215.064C309.884 214.888 310.075 214.697 310.221 214.492C310.383 214.287 310.5 214.089 310.573 213.898V212.072C310.368 212.057 310.155 212.05 309.935 212.05C309.73 212.035 309.525 212.028 309.319 212.028C308.865 212.028 308.417 212.057 307.977 212.116C307.552 212.16 307.171 212.255 306.833 212.402C306.511 212.534 306.247 212.725 306.041 212.974C305.851 213.209 305.755 213.509 305.755 213.876C305.755 214.389 305.939 214.815 306.305 215.152C306.672 215.475 307.141 215.636 307.713 215.636Z" fill="#562212"/>
</svg>
